<svg xmlns="http://www.w3.org/2000/svg" viewBox="0 0 60 60" width="60" height="60">
  <defs>
    <linearGradient id="toothGrad" x1="0%" y1="0%" x2="100%" y2="100%">
      <stop offset="0%" style="stop-color:#c9a227"/>
      <stop offset="100%" style="stop-color:#a8871f"/>
    </linearGradient>
  </defs>
  <circle cx="30" cy="30" r="28" fill="#1e3a5f"/>
  <path d="M30 12c-4 0-7 2-9 5-2-3-5-5-9-5-5 0-2 8 0 15 1 4 3 8 4 12 1 4 2 9 5 9s4-5 5-9c0-2 1-3 2-3s2 1 2 3c1 4 2 9 5 9s4-5 5-9c1-4 3-8 4-12 2-7 5-15 0-15-4 0-7 2-9 5-2-3-5-5-9-5z" fill="url(#toothGrad)" transform="translate(6, 2)"/>
</svg>
